HIERARCHY
ROOT Hips
{
	OFFSET 0.000000 8.830580 0.000000
	CHANNELS 6 Xposition Yposition Zposition Zrotation Yrotation Xrotation 
	JOINT Spine
	{
		OFFSET 0.000000 0.010000 0.000000
		CHANNELS 3 Zrotation Yrotation Xrotation
		JOINT Spine1
		{
			OFFSET 0.000000 2.459130 0.000000
			CHANNELS 3 Zrotation Yrotation Xrotation
			JOINT Neck
			{
				OFFSET 0.000000 2.484630 0.000000
				CHANNELS 3 Zrotation Yrotation Xrotation
				JOINT Head_virtual
				{
					OFFSET 0.000000 0.000000 0.000000
					CHANNELS 3 Zrotation Yrotation Xrotation
					JOINT Head
					{
						OFFSET 0.000000 0.927525 0.000000
						CHANNELS 3 Zrotation Yrotation Xrotation
						End Site
						{
							OFFSET 0.000000 0.000000 0.000000
						}
					}
				}
				JOINT LeftUpArm_virtual
				{
					OFFSET 0.000000 0.000000 0.000000
					CHANNELS 3 Zrotation Yrotation Xrotation
					JOINT LeftUpArm
					{
						OFFSET 1.248820 0.000000 0.000000
						CHANNELS 3 Zrotation Yrotation Xrotation
						JOINT LeftForeArm
						{
							OFFSET 2.597580 0.000000 0.000000
							CHANNELS 3 Zrotation Yrotation Xrotation
							JOINT LeftHand
							{
								OFFSET 2.455420 0.000000 0.000000
								CHANNELS 3 Zrotation Yrotation Xrotation
								End Site
								{
									OFFSET 0.000000 0.000000 0.000000
								}
							}
						}
					}
				}
				JOINT RightUpArm_virtual
				{
					OFFSET -0.000000 -0.000000 -0.000000
					CHANNELS 3 Zrotation Yrotation Xrotation
					JOINT RightUpArm
					{
						OFFSET -1.248820 -0.000000 -0.000000
						CHANNELS 3 Zrotation Yrotation Xrotation
						JOINT RightForeArm
						{
							OFFSET -2.597580 -0.000000 -0.000000
							CHANNELS 3 Zrotation Yrotation Xrotation
							JOINT RightHand
							{
								OFFSET -2.455420 -0.000000 -0.000000
								CHANNELS 3 Zrotation Yrotation Xrotation
								End Site
								{
									OFFSET 0.000000 0.000000 0.000000
								}
							}
						}
					}
				}
			}
		}
	}
	JOINT LeftUpLeg
	{
		OFFSET 1.271939 0.000000 0.000000
		CHANNELS 3 Zrotation Yrotation Xrotation
		JOINT LeftLowLeg
		{
			OFFSET 0.000000 -4.342910 0.000000
			CHANNELS 3 Zrotation Yrotation Xrotation
			JOINT LeftFoot
			{
				OFFSET 0.000000 -4.487670 0.000000
				CHANNELS 3 Zrotation Yrotation Xrotation
				JOINT LeftToeBase
				{
					OFFSET 0.000000 0.000000 1.515070
					CHANNELS 3 Zrotation Yrotation Xrotation
					End Site
					{
						OFFSET 0.000000 0.000000 0.000000
					}
				}
			}
		}
	}
	JOINT RightUpLeg
	{
		OFFSET -1.271939 0.000000 0.000000
		CHANNELS 3 Zrotation Yrotation Xrotation
		JOINT RightLowLeg
		{
			OFFSET 0.000000 -4.342910 0.000000
			CHANNELS 3 Zrotation Yrotation Xrotation
			JOINT RightFoot
			{
				OFFSET 0.000000 -4.487670 0.000000
				CHANNELS 3 Zrotation Yrotation Xrotation
				JOINT RightToeBase
				{
					OFFSET 0.000000 0.000000 1.515070
					CHANNELS 3 Zrotation Yrotation Xrotation
					End Site
					{
						OFFSET 0.000000 0.000000 0.000000
					}
				}
			}
		}
	}
}
MOTION
Frames: 13
Frame Time: 0.041667
-17.596929 6.898211 37.634300 -176.434884 -0.374060 -163.725981 -7.016760 -3.429711 38.803269 3.807348 7.101208 -16.464747 0.000000 0.000000 0.000000 22.374073 0.672598 -47.423746 -9.084599 11.925777 -90.730402 -22.024200 -5.157930 10.160200 -75.658600 -47.563099 68.746002 0.000000 -76.951401 0.000000 18.748400 35.926498 95.086403 29.155800 5.719720 10.595600 55.822201 41.901600 45.146198 0.000000 76.063004 0.000000 -10.165200 -11.295400 84.854698 -10.252838 -19.031442 -86.523984 0.000000 0.000000 107.498001 9.940698 1.355605 14.270440 0.000000 0.000000 -14.451440 -2.822374 24.189543 -78.935951 0.000000 0.000000 71.643501 19.780266 -4.761303 9.182440 0.000000 0.000000 -28.037400 
-17.595828 6.896937 37.635985 -176.429043 -0.341287 -163.770865 -7.044106 -3.407095 38.845208 3.853414 7.071193 -16.458804 0.000000 0.000000 0.000000 22.473374 0.682729 -47.494814 -9.111977 11.897772 -90.726307 -22.006201 -5.103260 10.133300 -75.776299 -47.579700 68.830994 0.000000 -76.719002 0.000000 18.424999 36.049702 94.287399 29.194799 5.710690 10.626800 55.766602 41.903099 45.040199 0.000000 76.000603 0.000000 -10.149500 -11.506500 85.015999 -10.199981 -19.003237 -86.492821 0.000000 0.000000 107.448997 10.286979 1.285021 14.408941 0.000000 0.000000 -14.295736 -2.855782 24.224929 -78.879083 0.000000 0.000000 71.605797 19.995110 -4.591412 9.074315 0.000000 0.000000 -27.816400 
-17.594177 6.895718 37.637677 -176.416040 -0.292199 -163.797628 -7.079913 -3.340914 38.859414 3.915919 7.046748 -16.416470 0.000000 0.000000 0.000000 22.591672 0.698798 -47.597030 -9.184034 11.864388 -90.806902 -22.010799 -5.087190 10.164700 -75.858902 -47.650700 68.884003 0.000000 -76.509903 0.000000 18.318501 36.107201 94.138397 29.187700 5.699490 10.570000 55.799999 41.851501 45.052799 0.000000 75.927399 0.000000 -10.281700 -11.610300 85.386200 -10.202650 -18.932070 -86.478404 0.000000 0.000000 107.433998 10.690442 1.268413 14.535480 0.000000 0.000000 -13.957710 -2.894468 24.286332 -78.841961 0.000000 0.000000 71.554703 20.252845 -4.450520 8.966127 0.000000 0.000000 -27.564400 
-17.592462 6.894744 37.638123 -176.397445 -0.294291 -163.812626 -7.099905 -3.317271 38.862017 3.976686 7.016968 -16.373246 0.000000 0.000000 0.000000 22.724236 0.753393 -47.700890 -9.254305 11.847864 -90.831675 -21.968300 -5.054890 10.091100 -76.002701 -47.568100 68.923004 0.000000 -76.304398 0.000000 18.146700 36.103001 93.732399 29.202101 5.688710 10.550800 55.792099 41.855900 45.066502 0.000000 75.916397 0.000000 -10.353100 -11.796800 85.715698 -10.201916 -18.912632 -86.467136 0.000000 0.000000 107.446999 10.932737 1.292502 14.595758 0.000000 0.000000 -14.037509 -2.882157 24.301758 -78.827524 0.000000 0.000000 71.550598 20.402307 -4.392478 8.918558 0.000000 0.000000 -27.449700 
-17.591577 6.893715 37.638714 -176.329945 -0.326893 -163.808720 -7.077178 -3.356705 38.860159 3.999725 7.015787 -16.335697 0.000000 0.000000 0.000000 22.834154 0.845721 -47.834624 -9.302085 11.863024 -90.896962 -21.820801 -4.991100 9.821770 -76.460297 -47.245998 69.027008 0.000000 -75.854103 0.000000 17.990900 35.860500 93.527000 29.230499 5.664790 10.532100 55.754700 41.876499 45.082298 0.000000 75.951500 0.000000 -10.313700 -12.018100 85.990601 -10.103193 -18.960616 -86.477546 0.000000 0.000000 107.459000 10.703846 1.349824 14.519707 0.000000 0.000000 -14.147196 -2.779674 24.266700 -78.808792 0.000000 0.000000 71.538101 20.425214 -4.358421 8.905983 0.000000 0.000000 -27.396800 
-17.593460 6.895334 37.640542 -176.173694 -0.337264 -163.798693 -7.005434 -3.449546 38.909040 3.981115 7.068359 -16.345265 0.000000 0.000000 0.000000 22.972146 1.035003 -48.013579 -9.274230 11.910579 -90.956900 -21.415800 -4.829170 9.278000 -77.623299 -46.464100 69.084015 0.000000 -74.774200 0.000000 17.547501 35.402401 92.432999 29.253099 5.667960 10.451000 55.722801 41.804401 45.239799 0.000000 76.018303 0.000000 -10.428200 -12.004400 86.078102 -9.776989 -19.087062 -86.549460 0.000000 0.000000 107.449997 10.056011 1.282243 14.443930 0.000000 0.000000 -15.062429 -2.632494 24.246837 -78.728433 0.000000 0.000000 71.407501 20.538105 -4.255785 8.898685 0.000000 0.000000 -27.257400 
-17.603496 6.883790 37.617330 -176.194489 -1.076842 -163.985877 -6.714242 -4.220830 38.697380 4.083682 6.911873 -15.894537 0.000000 0.000000 0.000000 23.061050 1.188633 -48.309214 -9.359111 12.009941 -91.133173 -21.465200 -4.533330 9.033700 -78.340897 -45.757000 68.752991 0.000000 -73.758698 0.000000 17.028900 35.082500 91.257004 29.549101 5.612810 10.613100 55.053299 41.734001 45.279701 0.000000 76.220200 0.000000 -10.522700 -11.793800 86.161201 -9.531421 -20.011145 -86.345174 0.000000 0.000000 107.609001 9.319511 1.029964 14.232248 0.000000 0.000000 -15.318490 -3.914074 24.906711 -79.456835 0.000000 0.000000 72.458504 21.746847 -4.738002 8.358968 0.000000 0.000000 -26.596700 
-17.608566 6.883808 37.611979 -175.908805 -1.110359 -163.742677 -6.546726 -4.316240 38.249791 4.333450 6.958227 -15.582048 0.000000 0.000000 0.000000 23.134791 1.350340 -48.527110 -9.477165 12.093993 -91.338153 -21.323299 -4.435940 8.709380 -79.114700 -45.161098 68.355011 0.000000 -72.717400 0.000000 16.754601 34.938400 89.896103 29.587299 5.696890 10.564800 54.709000 41.603802 45.453899 0.000000 76.387398 0.000000 -10.657500 -11.469100 86.086403 -8.823279 -20.191128 -86.753520 0.000000 0.000000 107.781998 8.223526 0.401677 13.829017 0.000000 0.000000 -15.642107 -3.701010 24.790901 -79.576638 0.000000 0.000000 72.406799 22.726488 -4.186853 8.225974 0.000000 0.000000 -26.091500 
-17.610274 6.888264 37.608039 -175.656442 -1.106630 -163.753210 -6.504885 -4.196007 38.134669 4.743337 6.976399 -15.380557 0.000000 0.000000 0.000000 23.190622 1.525255 -48.677587 -9.534524 12.165072 -91.527006 -21.275900 -4.332990 8.671790 -79.729698 -45.010799 68.295013 0.000000 -71.598198 0.000000 16.898500 34.676498 89.518799 29.666000 5.707130 10.617500 54.242199 41.523998 45.521000 0.000000 76.561699 0.000000 -10.774900 -11.103100 86.254501 -8.226901 -20.245307 -86.874753 0.000000 0.000000 107.889000 7.179228 -0.275811 13.440229 0.000000 0.000000 -15.805674 -3.544764 24.864730 -79.462846 0.000000 0.000000 72.260300 23.021163 -3.978641 8.242161 0.000000 0.000000 -25.917500 
-17.615342 6.892900 37.606149 -175.498506 -1.123633 -163.759214 -6.507018 -4.010259 38.017791 5.392234 6.925881 -15.181719 0.000000 0.000000 0.000000 22.831482 1.331194 -48.945013 -9.097271 12.353246 -91.506904 -21.325600 -4.270820 8.376110 -80.281601 -44.756199 68.553986 0.000000 -70.492203 0.000000 17.167500 34.257301 89.830902 29.658501 5.641670 10.759900 54.691299 42.230701 46.311901 0.000000 75.561401 0.000000 -11.476200 -11.485500 85.495201 -7.828988 -20.373424 -86.945482 0.000000 0.000000 107.882004 6.414482 -0.683266 13.346436 0.000000 0.000000 -15.888863 -3.375441 24.806031 -79.332070 0.000000 0.000000 72.136101 23.257530 -3.801955 8.257901 0.000000 0.000000 -25.757500 
-17.623892 6.897293 37.603989 -175.387280 -1.090988 -163.612146 -6.466652 -3.964516 37.696278 5.671370 6.905358 -15.046598 0.000000 0.000000 0.000000 22.617612 1.431377 -48.949028 -8.752185 12.502381 -91.410159 -21.350500 -4.257120 8.276540 -80.621498 -44.820301 69.036011 0.000000 -69.216301 0.000000 17.182100 33.774899 90.252602 29.723801 5.692870 11.007400 54.121899 42.378201 46.381500 0.000000 75.471802 0.000000 -11.816400 -11.271100 85.324799 -7.595301 -20.499270 -87.107729 0.000000 0.000000 107.820000 6.150233 -0.755782 13.438751 0.000000 0.000000 -15.836059 -3.284086 24.708454 -79.380948 0.000000 0.000000 72.053902 23.229620 -3.665572 8.332327 0.000000 0.000000 -25.706600 
-17.634504 6.899393 37.601369 -175.192281 -1.039008 -163.501758 -6.363694 -3.945960 37.362936 5.927594 6.964664 -14.977173 0.000000 0.000000 0.000000 22.364724 1.496094 -48.709389 -8.432393 12.573668 -91.355032 -21.351900 -4.252640 8.206960 -80.862396 -44.951599 69.667999 0.000000 -67.910400 0.000000 16.940001 33.196098 89.676598 29.737400 5.785700 11.181600 53.718700 42.435902 46.549900 0.000000 75.196403 0.000000 -12.106000 -11.209700 84.947700 -7.483587 -20.561346 -87.282008 0.000000 0.000000 107.827003 6.312125 -0.496818 13.790889 0.000000 0.000000 -15.758164 -3.108206 24.635981 -79.408045 0.000000 0.000000 72.000000 23.184141 -3.515470 8.426792 0.000000 0.000000 -25.641800 
-17.650231 6.897182 37.604233 -174.987696 -0.934227 -163.012326 -6.132318 -4.093390 36.504496 5.985079 7.040493 -14.659585 0.000000 0.000000 0.000000 22.034050 1.532890 -48.513866 -8.067771 12.706566 -91.176263 -21.173599 -4.337900 8.224590 -81.060097 -45.274799 70.026001 0.000000 -66.850304 0.000000 15.726000 34.218700 84.757500 29.629000 6.023410 11.130600 53.765499 42.336300 46.812599 0.000000 74.801804 0.000000 -12.293500 -11.183200 85.144302 -7.236619 -20.715881 -87.925977 0.000000 0.000000 107.831001 6.508453 -0.160368 14.229446 0.000000 0.000000 -15.690178 -3.088498 24.481590 -79.913936 0.000000 0.000000 71.996902 23.154111 -3.259034 8.599733 0.000000 0.000000 -25.633700 
